<?xml version="1.0" encoding="UTF-8"?>
<svg width="130px" height="35px" viewBox="0 0 130 35" version="1.1" xmlns="http://www.w3.org/2000/svg" xmlns:xlink="http://www.w3.org/1999/xlink">
    <title>amazon-music-b</title>
    <defs>
        <polygon id="path-1" points="0 0 130 0 130 35 0 35"></polygon>
    </defs>
    <g id="Page-1" stroke="none" stroke-width="1" fill="none" fill-rule="evenodd">
        <g id="Desktop-Homepage-1920" transform="translate(-959.000000, -1165.000000)">
            <g id="Logos" transform="translate(150.000000, 1160.000000)">
                <g id="amazon-music-b" transform="translate(809.000000, 5.000000)">
                    <mask id="mask-2" fill="white">
                        <use xlink:href="#path-1"></use>
                    </mask>
                    <g id="Clip-2"></g>
                    <path d="M104.496057,24.7442339 C104.493803,24.7442339 104.492113,24.7442339 104.489296,24.7442339 L104.489296,29.4132813 C104.781143,29.4478249 104.960871,29.4104499 105.0944,29.2937945 C105.186236,29.2139478 105.258916,29.1012565 105.316384,28.9234419 C105.359767,28.8084854 105.387937,28.6884322 105.398642,28.5655477 C105.422869,27.7285735 105.450476,26.8915993 105.448222,26.0546251 C105.439771,25.775445 105.392444,25.4990962 105.307369,25.2323744 C105.183419,24.801429 104.971013,24.6842073 104.496057,24.7442339 L104.496057,24.7442339 Z M117.779607,2.76828172 C118.56951,2.7886681 119.225321,2.1617869 119.245604,1.36785063 C119.248984,1.295932 119.24673,1.22401338 119.238279,1.15266105 C119.156021,0.438005149 118.512605,-0.073919523 117.80158,0.00875857665 C117.724393,0.000830539703 117.646642,-0.000302037004 117.568891,0.00536084653 C116.86181,0.0602908168 116.332767,0.680376564 116.386854,1.39106845 C116.418405,2.1470634 117.02689,2.74902792 117.779607,2.76828172 L117.779607,2.76828172 Z M45.3987102,17.0495077 C44.7919162,16.9192614 44.16991,16.8598011 43.7298857,16.7952442 C43.1450647,16.839981 42.7433524,16.8530057 42.3422035,16.9034053 C41.328063,17.0019395 40.3544881,17.3502068 39.5076808,17.9187603 C39.3916181,18.0008721 39.3471086,18.1849159 39.2693578,18.3219576 C39.4057033,18.3887797 39.5521903,18.4323839 39.7031846,18.4493725 C40.3820953,18.4040695 41.0576255,18.2942095 41.7342826,18.279486 C42.4120665,18.2624974 43.0898504,18.2976072 43.7625636,18.3848157 C44.2583656,18.4510714 44.389077,18.6775867 44.3716113,19.1872462 C44.3716113,19.4669927 44.3338627,19.7456066 44.2583656,20.0145935 C43.9265163,21.044672 43.5608623,22.0639911 43.2228155,23.0912382 C43.2053497,23.214689 43.2092936,23.340405 43.2340837,23.4627233 C43.3698658,23.466121 43.5062114,23.4513976 43.6380496,23.4185528 C43.7512953,23.3675869 43.8482021,23.2877402 43.9197553,23.1863746 C44.3716113,22.6506658 44.7857186,22.0843775 45.1598238,21.4914736 C45.7683081,20.416092 46.0950867,19.202536 46.1080451,17.965196 C46.1131158,17.3609663 45.9880385,17.17579 45.3987102,17.0495077 L45.3987102,17.0495077 Z M118.352033,4.78540084 C118.016803,4.78143682 117.682137,4.78540084 117.348034,4.78540084 C116.726591,4.7870997 116.654475,4.85788575 116.654475,5.48080294 L116.654475,11.2569441 C116.654475,12.768934 116.649967,14.280924 116.654475,15.7923476 C116.658982,16.2295222 116.784059,16.3467439 117.217886,16.3501416 L118.35654,16.3501416 C118.830933,16.3473102 118.944178,16.2363176 118.944178,15.7549725 L118.944178,10.5819284 C118.944178,8.85758039 118.943615,7.13266607 118.943615,5.40831803 C118.943615,4.88733274 118.854596,4.7921963 118.352033,4.78540084 L118.352033,4.78540084 Z M106.871963,16.1060713 C108.074846,16.5664637 109.361678,16.7635321 110.646819,16.6842517 C111.586589,16.655371 112.501569,16.3722268 113.294289,15.8636999 C115.029596,14.7367861 115.341163,11.6035126 113.050895,10.4839605 C112.58101,10.2540475 112.094786,10.0564128 111.612506,9.85424789 C110.831618,9.52693322 110.040025,9.22453524 109.268151,8.87796677 C108.829254,8.70015223 108.538534,8.27713483 108.527265,7.8020189 C108.447261,7.10944824 108.918273,6.47407271 109.601127,6.352887 C110.375818,6.17110844 111.179806,6.15921639 111.959568,6.31834341 C112.463821,6.39932265 112.958496,6.54485875 113.457115,6.65811643 C113.881927,6.75551802 114.015456,6.65245354 114.020526,6.22094182 C114.020526,6.03066893 114.013765,5.83982975 114.020526,5.64955687 C114.050951,5.33526683 113.845305,5.04702606 113.539936,4.97397486 C112.616505,4.63306927 111.641804,4.45582102 110.658651,4.44902556 C109.831563,4.42014485 109.008419,4.58210332 108.254011,4.9235752 C107.866947,5.09063026 107.518759,5.33583312 107.230292,5.64276141 C106.056706,6.89029465 106.110794,8.85814668 107.351989,10.0377253 C107.899625,10.4811291 108.520504,10.8237336 109.18533,11.0513815 C110.0789,11.3939859 110.980359,11.7252646 111.848575,12.1273293 C112.895394,12.6115059 112.671156,14.0861208 111.904353,14.5131022 C111.566306,14.7045076 111.193891,14.8268259 110.807955,14.8749604 C109.604508,14.9831215 108.391483,14.8483449 107.240434,14.4785586 C106.273056,14.1920167 106.239252,14.2141019 106.251647,15.2147334 C106.258971,15.795179 106.322637,15.8886166 106.871963,16.1060713 L106.871963,16.1060713 Z M47.2331777,13.3471145 C46.7700535,13.1285272 46.2889002,12.9507126 45.7953518,12.815936 C45.0285489,12.6534112 44.2414632,12.5860229 43.445363,12.4727652 C43.4966334,12.391786 43.5569184,12.2898541 43.6250912,12.1935851 C44.656134,10.7314286 45.6528087,9.24265647 46.7339952,7.81900755 C47.3340283,7.13379864 47.6151706,6.22377326 47.5069956,5.3171456 C47.5053054,5.29449407 47.5053054,5.27240882 47.5069956,5.24975729 C47.4985444,4.87374182 47.3751573,4.74009777 47.0044327,4.74009777 L40.2080011,4.74009777 C39.8254448,4.74066406 39.6952968,4.87713955 39.6913529,5.2735414 C39.6857188,5.69939024 39.6857188,6.12523908 39.6913529,6.55052164 C39.6964236,6.95768296 39.8260082,7.08113383 40.2434961,7.08113383 L43.7293223,7.08113383 C43.6324155,7.23006766 43.5698769,7.3303007 43.5039577,7.43053374 C42.2255773,9.25171708 40.9353652,11.0649724 39.677831,12.9003129 C39.4812005,13.2066749 39.3611938,13.5566411 39.3273892,13.919632 C39.290204,14.4785586 39.2856967,15.0386178 39.3138673,15.5981107 C39.318938,16.0222606 39.5499367,16.1649653 39.922915,15.9871508 C42.1686728,14.8653335 44.8060014,14.8562729 47.059647,15.9622341 C47.4737543,16.1530733 47.7132042,16.0143326 47.7194017,15.5613019 C47.723909,15.0788242 47.7160212,14.5980454 47.7194017,14.116134 C47.7470089,13.7791925 47.5481246,13.4649024 47.2331777,13.3471145 L47.2331777,13.3471145 Z M96.3789892,16.5455111 C97.3289008,16.7686287 98.3210682,16.7391817 99.2563311,16.4605678 C100.219765,16.1842191 101.126293,15.736285 101.931408,15.1377182 C101.992257,15.429923 102.044654,15.6688967 102.092544,15.9039064 C102.092544,15.9067378 102.093107,15.909003 102.093107,15.9118344 C102.121841,16.1796888 102.361855,16.374492 102.628912,16.3456113 C102.95231,16.3456113 103.276271,16.3541056 103.599106,16.3456113 C103.954055,16.3359844 104.08195,16.2102684 104.08195,15.8506753 L104.08195,5.2639145 C104.087584,5.22370803 104.088147,5.18293526 104.083076,5.1421625 C104.052089,4.91338201 103.8425,4.75255612 103.614882,4.78370197 C103.235142,4.78030424 102.855966,4.78030424 102.475664,4.78030424 C101.867743,4.78200311 101.791119,4.86241606 101.791119,5.48533324 C101.794499,8.14065933 101.792246,10.7959854 101.785485,13.4507452 C101.785485,13.5787264 101.7483,13.7673004 101.661534,13.8239293 C100.601194,14.5714299 99.3137991,14.9202635 98.0241504,14.8104036 C97.3508738,14.7809566 96.7812649,14.3024429 96.6325243,13.6421507 C96.5316736,13.2536769 96.4781496,12.8544436 96.4725155,12.4529451 C96.4556131,10.7053793 96.4646277,8.95781343 96.4646277,7.21024757 C96.4646277,6.58280007 96.4702618,5.95535258 96.4646277,5.32790508 C96.4612472,4.90205624 96.351382,4.7921963 95.9248796,4.78370197 C95.5688036,4.77803909 95.2116008,4.78370197 94.8549614,4.78370197 C94.2583087,4.78596713 94.1670361,4.87997099 94.1670361,5.4921287 C94.1619654,7.97926715 94.1619654,10.4658393 94.1670361,12.9529778 C94.1675995,13.2887868 94.1873189,13.6245958 94.2261943,13.9581396 C94.3185937,15.1949134 95.1839936,16.2357513 96.3789892,16.5455111 L96.3789892,16.5455111 Z M42.0492295,19.5525022 C41.9962689,19.5694909 41.9455619,19.5927087 41.893728,19.6136614 C36.0308692,22.0594608 29.6248817,22.8913384 23.3360839,22.0220857 C18.7809029,21.4229527 14.3812234,19.9556995 10.3725514,17.6990405 C10.2846592,17.6316521 10.1815549,17.5857828 10.0716897,17.566529 C9.94210509,17.5682278 9.7544891,17.6027714 9.70209184,17.6899798 C9.65476529,17.8202262 9.67110422,17.9657623 9.74716475,18.0818514 C9.8733689,18.2387133 10.0192925,18.3780202 10.1809915,18.497507 C14.9480152,22.6268817 21.0153924,24.9265787 27.3086975,24.9894367 C30.9488985,25.0217152 34.5626191,24.3557601 37.9554824,23.0283802 C39.5916291,22.3981012 41.1410104,21.5605607 42.5664412,20.5367114 C42.8842052,20.3056657 42.9760413,20.0451731 42.8436396,19.7960062 C42.6740528,19.5298507 42.3376962,19.4267862 42.0492295,19.5525022 L42.0492295,19.5525022 Z M54.9986768,12.9246633 C54.9350113,13.5589063 54.4994943,14.0929162 53.8932636,14.2803577 C53.3546423,14.4836552 52.7495385,14.2509107 52.4847352,13.7372871 C52.2368342,13.2650026 52.0700644,12.7536443 51.9911868,12.2252972 C51.7669491,10.8628075 51.7996269,9.47030439 52.0869667,8.11970667 C52.15852,7.47357165 52.6284051,6.94352576 53.2594258,6.79798965 C53.2746379,6.79345934 53.2909769,6.78892903 53.3073158,6.78496502 C53.9901704,6.6105482 54.6848566,7.02563757 54.8583873,7.71254534 C55.02234,8.50931305 55.1434735,9.3140088 55.2206608,10.1238011 C55.2324925,10.2914225 55.2336193,10.4596101 55.2234779,10.6272315 L55.296158,10.6362921 C55.2020683,11.4002151 55.1524881,12.1714998 54.9986768,12.9246633 L54.9986768,12.9246633 Z M53.6476163,4.54189685 C51.9320286,4.40372249 50.3094038,5.34432744 49.5685179,6.90558444 C48.3543663,9.18659392 48.3588736,11.9279958 49.5809129,14.2050413 C49.9161427,14.846646 50.4006765,15.3970783 50.9933852,15.8093362 C53.0211028,17.2199605 55.8021014,16.7108673 57.2049957,14.6733618 C57.979123,13.5560749 58.3904133,12.2247309 58.3813987,10.8628075 C58.4377398,9.5331624 58.1605414,8.2103128 57.5745936,7.01657695 C56.853427,5.49609272 55.3232017,4.53170366 53.6476163,4.54189685 L53.6476163,4.54189685 Z M68.5475937,6.93503143 C68.412375,5.75715165 67.5233118,4.80805237 66.3615575,4.60135712 C65.1079672,4.25422236 63.7794432,4.80635351 63.1360274,5.94232795 C63.0047525,6.1586501 62.8977043,6.38856317 62.7799514,6.61168078 L62.7275541,6.59299326 L62.7275541,5.31657932 C62.7264273,4.87430811 62.6250132,4.76614704 62.1737207,4.76105044 C61.6717212,4.75708642 61.1691582,4.76105044 60.6671587,4.76105044 C60.0237429,4.76161673 59.9471189,4.83693308 59.9471189,5.46947717 C59.9550067,8.77546858 59.962331,12.08146 59.9696554,15.3868851 L59.9696554,15.8240597 C59.9730359,16.2340525 60.0936059,16.3580696 60.5116571,16.3609011 C61.0801392,16.3642988 61.6469311,16.3614674 62.219357,16.3609011 C62.791783,16.3603348 62.8960141,16.2550052 62.8960141,15.6671978 C62.8965775,13.7061413 62.8886898,11.7445184 62.8993946,9.78346185 C62.8486876,9.06201049 63.0391206,8.34452314 63.4419597,7.74482378 C63.7276093,7.33766245 64.2262284,7.1405941 64.7107622,7.24309229 C65.1834643,7.30934803 65.554189,7.68309835 65.6201081,8.15764799 C65.7125076,8.64012566 65.7626512,9.12996509 65.7694122,9.62093709 C65.7851877,11.682793 65.7767365,13.7452152 65.7767365,15.8070711 C65.7767365,16.2482097 65.8888554,16.3614674 66.3339504,16.3614674 C66.9148275,16.3642988 67.4957046,16.3614674 68.0760184,16.3614674 C68.5966105,16.3597685 68.7025318,16.2533063 68.7025318,15.7334536 C68.7025318,13.458107 68.7132366,11.1827604 68.6957709,8.90798005 C68.6952075,8.24768783 68.6456273,7.5879619 68.5475937,6.93503143 L68.5475937,6.93503143 Z M5.91089665,13.2899193 C5.75595852,13.5719309 5.55087678,13.8239293 5.30691965,14.0328897 C4.89619275,14.4072063 4.29503281,14.4802575 3.80768196,14.2152345 C3.29892148,13.9207646 3.02341332,13.3414516 3.11412255,12.7581746 C3.07919104,11.9268633 3.63358784,11.1872907 4.43870271,10.9919212 C5.03648219,10.8458188 5.64158601,10.7325611 6.25176054,10.6521482 L6.25176054,10.6515819 C6.24274596,11.6272967 6.36049893,12.5016459 5.91089665,13.2899193 L5.91089665,13.2899193 Z M9.90379312,14.1484125 C9.45982495,13.5951488 9.22882628,12.8991804 9.25305297,12.1884885 C9.27108214,10.7104759 9.28629424,9.23019813 9.24065792,7.75275181 C9.30319659,6.26001571 8.26651964,4.9479256 6.80559393,4.6704443 C5.51819892,4.30462203 4.14967267,4.34652737 2.88594094,4.78993115 C1.63573108,5.15858486 0.683565844,6.18130163 0.399043096,7.45941445 C0.280726706,7.94642243 0.382704166,8.09422369 0.879069594,8.1474548 C1.42332499,8.20408363 1.96701697,8.25618216 2.50958213,8.3173413 C2.90227987,8.36151179 3.0273572,8.30544925 3.11637619,7.92660234 C3.12989807,7.87903412 3.14567359,7.83203218 3.16370275,7.78559654 C3.50851052,6.88972836 4.51081937,6.44462572 5.40269958,6.79119419 C5.79821437,6.9072833 6.096259,7.23742941 6.17175612,7.64515703 C6.24612642,8.08233163 6.2500703,8.5313983 6.28725545,9.00991196 C6.16386836,9.02576803 6.11034428,9.0319972 6.05625679,9.04332297 C5.10803543,9.17696702 4.1462922,9.25284966 3.21215613,9.45671347 C0.991188459,9.94089001 -0.139014774,11.4579765 0.0136697104,13.6472473 C0.0345159316,15.0035079 1.00245669,16.1581698 2.32872708,16.4096019 C3.71133861,16.7561703 5.17451797,16.3835526 6.22753385,15.4185973 C6.37120375,15.2815555 6.52501506,15.1484777 6.65290944,15.03522 C7.01687319,15.4367185 7.3588639,15.8478438 7.73522271,16.2244256 C8.03946485,16.5268236 8.21355897,16.5075698 8.5465351,16.2244256 C8.96289611,15.8687965 9.37362301,15.506372 9.79111084,15.1524417 C10.2869129,14.7339546 10.3071957,14.658072 9.90379312,14.1484125 L9.90379312,14.1484125 Z M32.3202418,10.9913549 C32.8949214,10.8463851 33.4780522,10.7365251 34.0668171,10.6623414 L34.1851335,10.7835271 L34.1851335,10.7863585 C34.1180875,11.4574102 34.0932974,12.1386551 33.9772347,12.8023451 C33.8741304,13.3510785 33.5445347,13.8295921 33.0707058,14.1200981 C32.8808361,14.2645016 32.6554716,14.3528426 32.4188388,14.3754941 C31.7157014,14.4434487 31.0908782,13.9247286 31.0243956,13.2180007 C30.7725507,12.2439847 31.3517376,11.2484498 32.3202418,10.9913549 L32.3202418,10.9913549 Z M27.8907015,13.6534765 C27.8828137,14.8166327 28.6084876,15.8574707 29.699252,16.2465108 C31.0373541,16.7737253 32.5501136,16.5766569 33.7107411,15.7249593 C34.0076589,15.5114685 34.2741525,15.2560725 34.5310681,15.0391841 C34.8848904,15.4355859 35.2173031,15.8416147 35.5846473,16.2057381 C35.9041016,16.5239921 36.0821396,16.508136 36.4235669,16.2159313 C36.8478157,15.8523741 37.2675571,15.4837204 37.6929327,15.1212959 C38.1346473,14.746413 38.1566203,14.624661 37.7842054,14.1586057 C37.3346031,13.609306 37.0996606,12.9139039 37.1233238,12.203212 C37.1447335,10.7246331 37.1526212,9.24492162 37.1120556,7.76747531 C37.1762845,6.27700436 36.1486221,4.96151652 34.6927671,4.67101059 C33.43805,4.31481522 32.1067089,4.34143077 30.8672038,4.74745952 C29.5606528,5.0934617 28.5566538,6.14449289 28.2653701,7.47017392 C28.154378,7.93679553 28.2602994,8.09252482 28.7290576,8.1423582 C29.2502132,8.19842075 29.7679882,8.24598897 30.2936511,8.30148523 C30.8193139,8.35754777 30.8666404,8.32810078 31.0260858,7.81504353 C31.0739758,7.68253206 31.1376413,7.55624975 31.2165189,7.43959435 C31.7478158,6.64679066 32.817734,6.43783026 33.60651,6.97184017 C33.7952528,7.10944824 33.933852,7.3059503 34.0003345,7.53020049 C34.0786487,8.00191869 34.1327362,8.47646833 34.162597,8.95328312 C32.9968989,9.14921889 31.9038808,9.25794626 30.8480479,9.51957148 C28.9099127,9.86387479 27.598291,11.6975165 27.8907015,13.6534765 L27.8907015,13.6534765 Z M74.6358171,16.3541056 L75.7412302,16.3541056 C76.3677437,16.3541056 76.4511286,16.2702949 76.4511286,15.6354857 C76.4511286,12.9569418 76.4483115,10.2783979 76.4584529,7.60042025 C76.4556359,7.44469095 76.5181745,7.29462453 76.6314202,7.18816232 C77.6326022,6.5618474 78.7971736,6.24925623 79.9758302,6.29172786 C80.7133357,6.27077519 81.3539344,6.79968851 81.4767581,7.53076678 C81.5483113,7.85864773 81.5832428,8.19275786 81.5826794,8.52856686 C81.5922574,10.9245329 81.5883135,13.3221978 81.5883135,15.7204289 C81.588877,16.2465108 81.6936715,16.3512742 82.2137002,16.3512742 L83.1850214,16.3512742 C83.7968862,16.3512742 83.8881588,16.2618006 83.8881588,15.6592698 C83.8825247,12.9359891 83.8825247,10.2127084 83.8881588,7.48999402 C83.8971734,7.37673635 83.9552048,7.27310558 84.0464774,7.20684984 C85.0510399,6.58789667 86.2105405,6.26907633 87.3891971,6.28833013 C88.1503659,6.25944942 88.8112475,6.81214686 88.9216761,7.57040696 C88.9870318,7.88696215 89.0202731,8.20974651 89.0202731,8.53309716 C89.0287243,10.86394 89.0247804,13.1947829 89.0247804,15.5256258 L89.0247804,15.7946127 C89.036612,16.2295222 89.1526748,16.3444787 89.5921356,16.3484427 L90.6310662,16.3484427 C91.2316628,16.3478764 91.3246256,16.2544389 91.3246256,15.6456789 C91.3291329,13.1800594 91.3291329,10.7144399 91.3246256,8.2493867 C91.3240622,7.90281823 91.3077233,7.55511718 91.2750454,7.21024757 C91.201802,5.66541294 89.9329995,4.451857 88.394323,4.45412215 C86.7536691,4.39975847 85.1400589,4.88506759 83.7985764,5.83643202 C83.699416,5.9009889 83.6002556,5.9638469 83.4875733,6.03576552 C82.9551496,4.98473434 81.846356,4.35785313 80.6761505,4.44449525 C79.611303,4.43769979 78.5611042,4.6902644 77.6156999,5.18067011 C77.1807463,5.39869113 76.7604414,5.64672543 76.302388,5.89815745 L76.1637888,5.19822505 C76.1389987,4.95019075 75.920395,4.76954477 75.6736209,4.7921963 C75.4060004,4.79332888 75.1378166,4.7870997 74.8701962,4.7870997 C74.2222731,4.78766599 74.1529735,4.8556206 74.1529735,5.49496015 L74.1529735,15.8829537 C74.1490297,15.9180636 74.1495931,15.9537397 74.1546638,15.9888496 C74.1873416,16.223293 74.4025648,16.3869503 74.6358171,16.3541056 L74.6358171,16.3541056 Z M12.2543454,16.3586359 C12.8571956,16.3631662 13.4606092,16.3620337 14.0634594,16.3586359 C14.5367249,16.3563708 14.6437731,16.2431131 14.6437731,15.7555388 C14.6437731,13.7497455 14.6229269,11.7428196 14.6556047,9.7370262 C14.6674364,9.14638745 14.7603992,8.55971272 14.9333665,7.99512323 C15.1226728,7.44752239 15.6889012,7.12813576 16.2523126,7.25045404 C16.7768486,7.271973 17.212929,7.66327825 17.2940602,8.18426354 C17.3684305,8.52290397 17.4061791,8.86890616 17.4067425,9.21547463 C17.4157571,11.4013477 17.4123766,13.5872207 17.4123766,15.7725275 C17.4123766,16.2329199 17.5318198,16.3586359 17.9831123,16.3586359 C18.5639895,16.3614674 19.1443032,16.3586359 19.7251803,16.3586359 C20.2311238,16.3569371 20.3370451,16.2521737 20.3370451,15.7544062 C20.3370451,13.994382 20.3308476,12.2343578 20.3370451,10.4748999 C20.3370451,9.91540704 20.3528206,9.35478157 20.3939496,8.79698754 C20.391696,8.23353062 20.690304,7.71254534 21.1765281,7.43166632 C21.3725952,7.30141999 21.6019037,7.23063395 21.8374096,7.2283688 C22.5129399,7.22157334 23.0662098,7.76577644 23.0729708,8.44475618 C23.0915633,8.66787379 23.0994511,8.88929254 23.0994511,9.11580788 C23.1000145,11.3350919 23.1000145,13.554376 23.0994511,15.7736601 C23.0994511,16.2340525 23.2205846,16.3586359 23.6707503,16.3586359 C24.2628956,16.3614674 24.8544776,16.3614674 25.4460595,16.3586359 C25.9086203,16.3563708 26.024683,16.2391491 26.024683,15.7861184 C26.024683,14.6427822 26.0201757,13.499446 26.024683,12.3561098 C26.0286269,11.0360917 26.0528536,9.71380838 26.0398951,8.39209136 C26.0573609,7.81051322 26.0105977,7.22893509 25.9001691,6.65755014 C25.3930988,4.52547449 22.4673035,3.78929963 20.8508763,5.37490702 C20.5612828,5.69995653 20.2981697,6.046525 20.0621003,6.41178099 C19.0597915,3.77967272 15.442127,3.99259714 14.4961593,6.39139461 C14.4961593,6.02557233 14.4989764,5.66031635 14.5096812,5.29336149 C14.5057373,4.89469449 14.3862941,4.76671332 13.9924695,4.76161673 C13.4115924,4.75368869 12.8307153,4.75368869 12.2498381,4.76161673 C11.8385478,4.76727961 11.7185412,4.89526078 11.7185412,5.31771189 L11.7185412,15.8087699 C11.7185412,16.2244256 11.8453087,16.3552382 12.2543454,16.3586359 L12.2543454,16.3586359 Z M123.661622,15.787251 C125.500597,16.8020397 127.702408,16.9062368 129.628712,16.0703952 C129.771255,16.0165978 129.877176,15.8642662 130,15.7572377 L129.997183,14.5544412 C129.873796,14.3743615 129.640544,14.3086721 129.441659,14.3981456 C128.491748,14.6960133 127.491693,14.7979452 126.501779,14.6977122 C125.226779,14.6348542 124.156861,13.709539 123.906706,12.4512463 C123.605844,11.2042793 123.608661,9.90294869 123.91572,8.65711431 C124.117985,7.54832172 125.001978,6.69379259 126.112461,6.53353299 C126.571078,6.43669768 127.039273,6.39875636 127.506905,6.42027532 C128.147503,6.48653105 128.784722,6.58733038 129.415179,6.72323959 C129.710407,6.77816956 129.876049,6.69096115 129.898023,6.38743059 C129.917742,6.15298721 129.923939,5.91797755 129.915488,5.68296788 C129.893515,5.21068339 129.794918,5.09232913 129.341936,4.93546725 C128.259059,4.57191013 127.109136,4.45582102 125.976116,4.59569424 C123.932059,4.75652013 122.207457,6.18639823 121.661512,8.17293777 C121.183739,9.80611338 121.193317,11.5434861 121.689682,13.1709988 C121.973078,14.2729959 122.682413,15.2147334 123.661622,15.787251 L123.661622,15.787251 Z M107.231983,27.7733103 C107.171698,28.4273733 107.032535,29.0718095 106.817875,29.6924615 C106.546874,30.4999887 105.775564,31.0277694 104.928757,30.9847315 C104.359711,30.9988887 103.789539,30.9819001 103.220494,30.9898281 C102.912871,30.9937921 102.778216,30.8703413 102.780989,30.5492558 C102.791738,29.3957264 102.78554,28.2416307 102.78554,27.0881014 L102.78554,27.0886676 C102.783286,25.9357046 102.78385,24.7816089 102.786667,23.6280795 C102.787794,23.2526303 102.864418,23.1710848 103.234579,23.1676871 C103.781088,23.1614579 104.32816,23.1552287 104.875233,23.1676871 C105.776691,23.1393727 106.591947,23.7067936 106.880977,24.5664193 C107.253392,25.5914012 107.373399,26.6916995 107.231983,27.7733103 L107.231983,27.7733103 Z M101.446875,26.8547906 C101.449128,28.0666476 101.449128,29.2762396 101.446875,30.4841326 C101.446311,30.9179095 101.374194,30.9858641 100.936987,30.9892618 C100.680072,30.9892618 100.423156,30.9813338 100.16624,30.9892618 C99.8563642,30.9977562 99.7217089,30.8584492 99.7250894,30.5447255 C99.7307235,29.7723082 99.7250894,28.9993246 99.7250894,28.2263409 L99.7250894,27.8208785 L98.7571486,27.8248425 C98.7520779,27.9545225 98.7419365,28.075142 98.7419365,28.1951951 C98.7391194,28.9908302 98.7346122,29.7881642 98.7419365,30.5809679 C98.7441901,30.8641121 98.6258738,30.995491 98.3441681,30.991527 C98.0438698,30.9869967 97.7435715,30.9869967 97.4427099,30.991527 C97.4032711,30.9988887 97.3632688,30.9988887 97.32383,30.9926596 C97.1317068,30.9615137 97.0015587,30.7791688 97.0331098,30.5866308 C97.0364902,28.2569205 97.0364902,25.9266439 97.0331098,23.5969337 C97.0325464,23.3001986 97.1683285,23.1642894 97.4590488,23.1671208 C97.7486422,23.1699522 98.0342918,23.1699522 98.3295194,23.1671208 C98.6236201,23.1642894 98.7486974,23.3052952 98.7447536,23.601464 C98.7379926,24.351796 98.7447536,25.1026944 98.7447536,25.8530265 C98.7447536,25.9730796 98.754895,26.0931327 98.7599657,26.2228128 L99.7267796,26.2228128 L99.7267796,25.0443667 C99.7267796,24.561889 99.7324137,24.0805439 99.7267796,23.5991988 C99.7233991,23.3052952 99.8580544,23.1637231 100.150465,23.1671208 C100.418649,23.1671208 100.686269,23.1642894 100.95389,23.1671208 C101.357292,23.1716511 101.446875,23.2577269 101.446875,23.6626231 L101.446875,26.8547906 Z M116.063456,19.5219227 C102.239031,19.5179586 88.4140424,19.5139946 74.5890539,19.5100306 L74.1715661,19.5100306 L74.1715661,34.9889565 L74.5811662,34.9889565 C82.0069282,34.9963182 89.4332536,34.9998591 96.8590157,34.9998591 L124.229541,34.9998591 C126.882081,35.0184035 129.201083,33.2051482 129.835484,30.6166441 C129.890698,30.3935265 129.943095,30.1721077 130,29.9455924 L130,19.5213564 C129.855203,19.5253204 129.70928,19.5321159 129.564483,19.5321159 C125.064516,19.5253204 120.563986,19.5219227 116.063456,19.5219227 L116.063456,19.5219227 Z" id="Fill-1" fill="#080808" mask="url(#mask-2)"></path>
                </g>
            </g>
        </g>
    </g>
</svg>