<?xml version="1.0" encoding="UTF-8"?>
<svg width="131px" height="32px" viewBox="0 0 131 32" version="1.1" xmlns="http://www.w3.org/2000/svg" xmlns:xlink="http://www.w3.org/1999/xlink">
    <title>apple-b</title>
    <defs>
        <rect id="path-1" x="0" y="0" width="131" height="32"></rect>
    </defs>
    <g id="Page-1" stroke="none" stroke-width="1" fill="none" fill-rule="evenodd">
        <g id="Desktop-Homepage-1920" transform="translate(-366.000000, -1167.000000)">
            <g id="Logos" transform="translate(150.000000, 1160.000000)">
                <g id="apple-b" transform="translate(216.000000, 7.000000)">
                    <mask id="mask-2" fill="white">
                        <use xlink:href="#path-1"></use>
                    </mask>
                    <use id="Mask" fill-opacity="0" fill="#D8D8D8" xlink:href="#path-1"></use>
                    <path d="M104.940885,10.1019108 C106.306487,10.1019108 107.695988,10.1019108 109.057039,10.0683266 C109.198151,10.6890562 109.274398,11.3225246 109.28464,11.9594673 C109.251638,18.4447018 109.28464,24.9299363 109.251638,31.4533874 C107.791581,31.4869716 106.363388,31.4869716 104.902193,31.4869716 C104.909021,24.3590041 104.873743,17.2298784 104.939747,10.1019108 L104.940885,10.1019108 Z M64.0729451,10.1019108 L68.3893879,10.1019108 C68.5225342,14.8986682 68.2573796,19.6618413 68.5225342,24.462073 C68.6898205,28.1447597 73.5695745,29.2588303 76.0583856,27.1650261 C77.3397762,26.0312681 78.0373716,24.3624783 77.9508835,22.6369427 C77.9850235,18.448176 77.9178814,14.2929936 77.9850235,10.1030689 L82.3333304,10.1030689 C82.3333304,17.2657788 82.3663325,24.4273306 82.3333304,31.6224667 C80.9381396,31.6224667 79.5110847,31.5900405 78.1238598,31.4545455 L78.1238598,27.9803127 C77.0529996,30.2547771 74.8805532,31.7834395 72.4122261,32 L70.5197283,32 C68.5657783,31.8123914 66.7745626,30.8083382 65.5728321,29.2298784 C64.4746599,27.5576144 63.9489028,25.5622467 64.0786351,23.5552982 L64.0729451,10.1019108 Z M116.361876,11.2159815 C119.539179,9.33178923 123.439113,9.21713955 126.717697,10.9114071 C129.12571,12.2547771 130.726879,14.7191662 131,17.4997105 C129.634397,17.5332947 128.277898,17.5332947 126.917986,17.5332947 C126.574309,16.3590041 125.932476,15.298205 125.057352,14.4585987 C123.602985,13.4337001 121.766249,13.1464968 120.077454,13.6815287 C117.985805,14.3566879 116.790903,16.5535611 116.425604,18.6462073 C116.093308,21.2148234 116.159312,24.1204401 117.753653,26.2489867 C119.542593,28.4956572 122.741517,28.940359 125.057352,27.2634627 C125.926786,26.4504922 126.557239,25.4082224 126.878156,24.2524609 C128.244896,24.2524609 129.600257,24.2524609 130.961308,24.2860452 C130.696153,28.5095541 126.911158,31.6514186 122.927011,31.954835 L120.644179,31.954835 C118.263478,31.7197452 116.045511,30.6149392 114.402236,28.8465547 C112.527946,26.463231 111.612992,23.4441228 111.845145,20.4006948 C111.882699,16.8928778 113.34048,13.1418645 116.361876,11.2159815 L116.361876,11.2159815 Z M87.976684,11.28315 C91.1869886,9.3537927 95.1438226,9.22640417 98.4690654,10.9449913 C100.453742,12.0706427 101.71351,14.1748697 101.78748,16.4863926 L97.8044721,16.4863926 C97.5575256,15.6317313 97.1398787,14.8372901 96.5765676,14.1551824 C95.322489,13.1731326 93.6928697,12.836132 92.1622565,13.2426173 C90.899074,13.5471917 89.472019,14.5257672 89.6381674,16.0127389 C89.5061591,17.1951361 90.5349132,17.9710481 91.4976632,18.3080486 C93.8863301,19.1870295 96.4775614,19.3514765 98.8002241,20.3358425 C100.144205,20.8037058 101.245791,21.8019687 101.854622,23.1071222 C102.85265,25.5935148 102.075395,28.4539664 99.9632625,30.0660104 C98.5339316,31.1105964 96.8644822,31.7637522 95.1153726,31.9583092 L91.9608301,31.9583092 C89.9067359,31.7070064 87.991478,30.7701216 86.517765,29.2947307 C85.5663951,28.1436016 84.9655298,26.7353793 84.7902775,25.2414592 C86.2184704,25.2414592 87.6455253,25.2750434 89.0748562,25.3769543 C89.428775,26.7492762 90.419975,27.8587145 91.7286777,28.3497394 C93.5494814,28.7550666 95.8789721,28.8569774 97.3048891,27.40359 C98.1868409,26.4863926 98.1720468,25.014476 97.270749,24.1169658 C97.1114287,23.9583092 96.9316243,23.8251303 96.7358879,23.7209033 C93.5494814,22.2003474 89.5311952,22.6045165 86.8420957,20.0046323 C84.3566986,17.6016213 85.1214361,13.074696 87.975546,11.284308 L87.976684,11.28315 Z M7.17055267,7.70237406 C9.42834929,7.2970469 11.4198534,8.6821077 13.5775058,9.05385061 C15.6020119,8.61378112 17.5286499,7.39779965 19.6533002,7.60046323 C22.0374151,7.61783439 24.2849697,8.73653735 25.7609587,10.641575 C23.3290477,12.0856977 21.972549,14.8604517 22.3082596,17.7058483 C22.474408,20.3416329 24.4704641,22.3381587 26.6247025,23.5159236 C25.4628021,26.4898668 23.8684608,29.5645628 21.2135014,31.4221193 C18.557404,33.1441807 15.8648905,30.0312681 13.0801988,30.74696 C11.6850079,31.0167921 10.4241013,31.6236248 9.03004847,31.9965258 L7.93415223,31.9965258 C7.02033636,31.6386798 6.18504265,31.0978576 5.47834321,30.4088014 C2.42280696,27.1464968 0.49844502,22.9577302 0,18.4806022 L0,16.1158078 C0.26401654,12.1285466 3.15226645,8.24319629 7.16941467,7.70237406 L7.17055267,7.70237406 Z M30.8410011,2.12854661 L35.9859096,2.12854661 C39.2064562,9.96641575 42.3268586,17.8702953 45.481401,25.7776491 C48.7349497,17.93978 51.789348,10.0011581 55.0098945,2.16213086 L60.1548031,2.16213086 C60.1878051,11.9594673 60.1548031,21.7232195 60.1548031,31.5205559 C58.7892003,31.5205559 57.4327015,31.5205559 56.1046528,31.5541401 C56.0386486,24.3902721 56.1706569,17.2298784 56.0386486,10.1007528 C55.740492,10.641575 55.4696475,11.2148234 55.2090449,11.7892299 C52.5916396,18.3775333 49.8968501,24.9310944 47.2430286,31.5193978 C46.0811283,31.5193978 44.9192279,31.552982 43.7573275,31.4522293 C40.9680838,24.2223509 37.9478256,17.1279676 35.1255799,9.93167342 C34.9594315,17.1279676 35.0925778,24.2906775 35.0595757,31.4846555 C33.6655229,31.5193978 32.270332,31.5193978 30.8489671,31.5193978 C30.8410011,21.6884771 30.807999,11.8888246 30.8410011,2.12854661 L30.8410011,2.12854661 Z M105.903635,1.92588303 C107.111055,1.26230457 108.618908,1.71974522 109.272122,2.94962362 C109.511102,3.40011581 109.611246,3.91546034 109.556622,4.42501448 C109.48948,5.81470759 108.189881,6.51997684 107.032533,6.82455124 C106.357698,6.65199768 105.739762,6.30225825 105.239041,5.81123335 C104.326363,4.806022 104.386678,3.23798494 105.373326,2.30920672 C105.533784,2.15865663 105.711312,2.03126809 105.904773,1.92935727 L105.903635,1.92588303 Z M19.3540056,0 L20.051601,0 C20.1847473,3.78343949 17.130349,7.66878981 13.2463471,7.60162131 C13.2554511,3.91546034 15.8057143,0.741169658 19.3540056,0 L19.3540056,0 Z" id="Apple" fill="#080808" mask="url(#mask-2)"></path>
                </g>
            </g>
        </g>
    </g>
</svg>