<?xml version="1.0" encoding="UTF-8"?>
<svg width="146px" height="28px" viewBox="0 0 146 28" version="1.1" xmlns="http://www.w3.org/2000/svg" xmlns:xlink="http://www.w3.org/1999/xlink">
    <title>deezer-b</title>
    <g id="Page-1" stroke="none" stroke-width="1" fill="none" fill-rule="evenodd">
        <g id="Desktop-Homepage-1920" transform="translate(-557.000000, -1169.000000)">
            <g id="Logos" transform="translate(150.000000, 1160.000000)">
                <g id="deezer-b" transform="translate(407.000000, 9.000000)">
                    <rect id="Rectangle" fill-opacity="0" fill="#D8D8D8" x="0" y="0" width="146" height="28"></rect>
                    <path d="M140.568478,9.06428571 C138.611136,8.96734694 136.801307,10.1 136.027119,11.905102 L136.027119,9.06428571 L130.918091,9.06428571 L130.918091,27.9989796 L136.027119,27.9989796 L136.027119,15.7989796 C136.027119,13.8663265 137.064796,12.7969388 138.654881,12.7969388 C140.078125,12.9122449 141.144287,14.1520408 141.050692,15.5806122 L141.050692,16.122449 L146,16.122449 L146,14.6765306 C146,11.4255102 143.970428,9.06428571 140.568478,9.06428571 L140.568478,9.06428571 Z M7.56282706,17.8071429 L13.8265244,17.8071429 L13.8265244,14.1306122 L7.56282706,14.1306122 L7.56282706,17.8071429 Z M7.56282706,22.9030612 L13.8265244,22.9030612 L13.8265244,19.227551 L7.56282706,19.227551 L7.56282706,22.9030612 Z M15.1398967,22.9030612 L21.4035941,22.9030612 L21.4035941,19.227551 L15.1398967,19.227551 L15.1398967,22.9030612 Z M22.7027238,28 L28.9664212,28 L28.9664212,24.3244898 L22.7027238,24.3244898 L22.7027238,28 Z M15.1398967,28 L21.4035941,28 L21.4035941,24.3244898 L15.1398967,24.3244898 L15.1398967,28 Z M7.56282706,28 L13.8265244,28 L13.8265244,24.3244898 L7.56282706,24.3244898 L7.56282706,28 Z M0,28 L6.26369737,28 L6.26369737,24.3244898 L0,24.3244898 L0,28 Z M22.7027238,22.9030612 L28.9664212,22.9030612 L28.9664212,19.227551 L22.7027238,19.227551 L22.7027238,22.9030612 Z M22.7027238,17.8071429 L28.9664212,17.8071429 L28.9664212,14.1306122 L22.7027238,14.1306122 L22.7027238,17.8071429 Z M22.7027238,12.7112245 L28.9664212,12.7112245 L28.9664212,9.03469388 L22.7027238,9.03469388 L22.7027238,12.7112245 Z M120.27479,12.744898 C122.552591,12.744898 124.099949,13.9744898 124.099949,15.9081633 L124.069429,16.0693878 L115.9664,16.0693878 C116.409956,14.0602041 118.224872,12.6591837 120.27479,12.744898 L120.27479,12.744898 Z M120.947245,24.0061224 C118.246236,24.0061224 116.026423,22.3663265 115.967418,19.4663265 L128.771526,19.4663265 C128.935316,18.7061224 129.014668,17.9295918 129.006529,17.1520408 C129.006529,11.9530612 125.472327,9.0244898 120.256479,9.0244898 C115.289876,8.80714286 111.088306,12.6683673 110.871614,17.65 C110.860424,17.8938776 110.859406,18.1387755 110.86958,18.3826531 C110.86958,24.3867347 115.089462,27.9887755 120.927916,27.9887755 C125.337022,27.9887755 128.331022,26.1438776 129.645412,22.4683673 L125.326848,20.755102 C124.903639,22.7979592 123.018528,24.1969388 120.947245,24.0061224 L120.947245,24.0061224 Z M110.182882,13.2530612 L110.182882,9.03571429 L93.7621679,9.03571429 L93.7621679,13.4285714 L103.792019,13.4285714 L93.4406918,23.6071429 L93.4406918,28 L110.477908,28 L110.477908,23.3867347 L99.8061221,23.3867347 L110.182882,13.2530612 Z M83.8187899,12.744898 C86.0965906,12.744898 87.6439486,13.9744898 87.6439486,15.9081633 L87.6144461,16.0693878 L79.5103998,16.0693878 C79.9529381,14.0602041 81.7688711,12.6591837 83.8187899,12.744898 L83.8187899,12.744898 Z M84.4902274,24.0061224 C81.790235,24.0061224 79.5714395,22.3663265 79.5114171,19.4663265 L92.3155254,19.4663265 C92.4793155,18.7061224 92.5576498,17.9295918 92.5505285,17.1520408 C92.5505285,11.9530612 89.0173434,9.0244898 83.8014953,9.0244898 C78.8338757,8.80714286 74.6323051,12.6683673 74.4156139,17.65 C74.4044233,17.8938776 74.4044233,18.1387755 74.4135793,18.3826531 C74.4135793,24.3867347 78.6324444,27.9887755 84.4719154,27.9887755 C88.8810212,27.9887755 91.8750218,26.1438776 93.1894114,22.4683673 L88.8708479,20.755102 C88.4476389,22.7979592 86.5625274,24.1969388 84.4902274,24.0061224 L84.4902274,24.0061224 Z M64.9686927,12.744898 C67.2475107,12.744898 68.7948688,13.9744898 68.7948688,15.9081633 L68.7643489,16.0693878 L60.6623372,16.0693878 C61.1048755,14.0602041 62.9197912,12.6591837 64.9686927,12.744898 L64.9686927,12.744898 Z M65.6421648,24.0061224 C62.9401378,24.0061224 60.7223596,22.3663265 60.6633545,19.4663265 L73.4674629,19.4663265 C73.6302356,18.7061224 73.70857,17.9295918 73.7004313,17.1520408 C73.7004313,11.9530612 70.1682635,9.0244898 64.9513981,9.0244898 C59.9858131,8.80714286 55.7832252,12.6683673 55.566534,17.65 C55.5563607,17.8938776 55.5553434,18.1387755 55.5634821,18.3826531 C55.5634821,24.3867347 59.7843819,27.9887755 65.6238529,27.9887755 C70.0329587,27.9887755 73.0249246,26.1438776 74.3393142,22.4683673 L70.0207507,20.755102 C69.5975417,22.7979592 67.7134476,24.1969388 65.6421648,24.0061224 L65.6421648,24.0061224 Z M49.2885941,18.5836735 C49.2885941,21.9367347 47.0118108,24.0316327 44.2812986,24.0316327 C41.4480361,24.0316327 39.2729857,21.9377551 39.2729857,18.5836735 C39.2729857,15.1714286 41.463296,13.0336735 44.2812986,13.0336735 C47.0118108,13.0336735 49.2885941,15.2040816 49.2885941,18.5836735 L49.2885941,18.5836735 Z M49.1329427,11.8908163 C47.9782737,9.92857143 45.8479859,9.05 43.1764788,9.05 C37.9484228,9.03571429 34.1832865,12.6214286 34.1832865,18.5836735 L34.1771826,18.5836735 C34.1771826,24.4561224 37.7846328,27.9714286 43.1418896,27.9714286 C45.8133967,27.9714286 48.0616948,27.2244898 49.3191139,25.2622449 L49.3191139,27.9714286 L54.2094166,27.9714286 L54.2094166,0 L49.1329427,0 L49.1329427,11.8908163 Z" id="Deezer" fill="#080808"></path>
                </g>
            </g>
        </g>
    </g>
</svg>