<?xml version="1.0" encoding="UTF-8"?>
<svg width="155px" height="45px" viewBox="0 0 155 45" version="1.1" xmlns="http://www.w3.org/2000/svg" xmlns:xlink="http://www.w3.org/1999/xlink">
    <title>spotify-b</title>
    <defs>
        <rect id="path-1" x="0" y="0" width="155" height="45"></rect>
    </defs>
    <g id="Page-1" stroke="none" stroke-width="1" fill="none" fill-rule="evenodd">
        <g id="Desktop-Homepage-1920" transform="translate(-150.000000, -1160.000000)">
            <g id="spotify-b" transform="translate(150.000000, 1160.000000)">
                <mask id="mask-2" fill="white">
                    <use xlink:href="#path-1"></use>
                </mask>
                <use id="Mask" fill-opacity="0" fill="#D8D8D8" xlink:href="#path-1"></use>
                <path d="M152.58909,18.7684772 L151.927476,18.7684772 L151.927476,19.5809858 L152.58909,19.5809858 C152.918166,19.5809858 153.116765,19.4255198 153.116765,19.1735967 C153.116765,18.9216736 152.915856,18.7662076 152.587936,18.7662076 L152.58909,18.7684772 Z M153.019775,19.9270964 L153.739122,20.8962059 L153.131776,20.8962059 L152.481708,20.0076664 L151.927476,20.0076664 L151.927476,20.8962059 L151.418275,20.8962059 L151.418275,18.3270444 L152.609874,18.3270444 C153.233385,18.3270444 153.639822,18.6323025 153.639822,19.1463618 C153.655987,19.520842 153.395036,19.8499308 153.023239,19.9270964 L153.019775,19.9270964 Z M152.455151,17.4725485 C151.212747,17.4884356 150.217438,18.4893192 150.233604,19.7103518 C150.248614,20.9313844 151.267016,21.9084374 152.510574,21.8936851 C153.744895,21.8789329 154.735585,20.8882624 154.730983,19.6751733 C154.727503,18.4530059 153.716029,17.4668746 152.471316,17.4702701 C152.465543,17.4702701 152.459769,17.4702701 152.452841,17.4702701 L152.455151,17.4725485 Z M152.44014,22.1376647 C151.062642,22.1047558 149.971498,20.9790455 150.006137,19.6241078 C150.039622,18.2691702 151.183881,17.1967949 152.563688,17.2308385 C153.914629,17.2626126 154.994227,18.3463358 155,19.6751733 C154.996536,21.0380545 153.870752,22.1387995 152.485172,22.1365299 C152.469007,22.1365299 152.453996,22.1365299 152.437831,22.1353951 L152.44014,22.1376647 Z M120.757691,10.3494801 C119.354791,10.3778498 118.240553,11.5183124 118.269419,12.8970806 C118.298286,14.2758489 119.458709,15.3697851 120.860455,15.3414154 C122.243726,15.3141805 123.349881,14.205492 123.349881,12.8460151 C123.337179,11.4536295 122.177911,10.3347278 120.761155,10.3472105 L120.756536,10.3472105 L120.757691,10.3494801 Z M122.543935,17.2592082 L118.92757,17.2592082 C118.783239,17.2592082 118.66431,17.3726871 118.662,17.5145357 L118.662,32.6866601 C118.66431,32.8296435 118.782084,32.9431223 118.92757,32.941996 L122.543935,32.941996 C122.689421,32.9431223 122.80835,32.8296435 122.810659,32.6866601 L122.810659,17.5145357 C122.80835,17.3726871 122.688266,17.2580735 122.543935,17.260343 L122.543935,17.2592082 Z M130.583765,17.2739605 L130.583765,16.7928101 C130.583765,15.3788634 131.148389,14.7501905 132.410422,14.7501905 C133.106676,14.758134 133.796002,14.8795564 134.450689,15.1110533 C134.530359,15.1371534 134.618113,15.1246708 134.686237,15.0758749 C134.755516,15.0293485 134.797084,14.9521829 134.797084,14.8693433 L134.797084,11.9381842 C134.797084,11.8247053 134.719722,11.7248439 134.61003,11.6942046 C133.635505,11.4082379 132.624032,11.2686589 131.606785,11.278872 C128.268691,11.278872 126.499767,13.0877251 126.499767,16.5079782 L126.499767,17.244456 L124.762018,17.244456 C124.617687,17.244456 124.501067,17.3568001 124.498758,17.4986487 L124.498758,20.503569 C124.501067,20.6454176 124.617687,20.7588965 124.762018,20.7577617 L126.499767,20.7577617 L126.499767,32.6866601 C126.500921,32.8296435 126.61985,32.9431223 126.765336,32.9419875 L126.766491,32.9419875 L130.380546,32.9419875 C130.524878,32.9442571 130.642652,32.831913 130.644961,32.6900645 L130.644961,32.6866601 L130.644961,20.7554921 L134.022313,20.7554921 L139.195147,32.6832557 C138.609739,33.9315233 138.031259,34.1845811 137.243788,34.1845811 C136.542915,34.1686941 135.857053,33.981454 135.247397,33.6398826 C135.183892,33.6092433 135.108839,33.6024345 135.03956,33.6205912 C134.969127,33.6432869 134.912549,33.6932176 134.882528,33.7579006 L133.656289,36.3452187 C133.596247,36.4677759 133.648207,36.6152984 133.7706,36.6754422 C134.951807,37.3177326 136.281964,37.6456865 137.63175,37.6263951 C140.301302,37.6263951 141.779254,36.4280583 143.07939,33.2097977 L149.352605,17.6189363 C149.387245,17.5406358 149.375698,17.4509875 149.324894,17.3817654 C149.276398,17.3114085 149.196728,17.2694213 149.108974,17.2682866 L145.344814,17.2682866 C145.231658,17.2671518 145.131204,17.3363739 145.0931,17.4396396 L141.227331,28.0362962 L137.004775,17.4362353 C136.964362,17.3375087 136.867372,17.2728257 136.758835,17.2716909 L130.579146,17.2716909 L130.583765,17.2739605 Z M116.718724,17.2592082 L112.736335,17.2592082 L112.736335,13.3385134 C112.73518,13.1966648 112.618561,13.083186 112.474229,13.0843123 L108.85671,13.0843123 C108.712379,13.0843123 108.59345,13.1966648 108.592295,13.3385134 L108.592295,17.2512647 L106.854546,17.2512647 C106.710215,17.2512647 106.592441,17.3658784 106.591286,17.5065922 L106.591286,20.4956255 C106.593595,20.6363393 106.71137,20.750953 106.854546,20.7498182 L108.592295,20.7498182 L108.592295,28.4856725 C108.592295,31.6097457 110.208806,33.1950454 113.401414,33.1950454 C114.582621,33.2234151 115.751127,32.9431223 116.786848,32.3836715 C116.869983,32.3405496 116.921942,32.2554404 116.920788,32.1635225 L116.920788,29.3163378 C116.919633,29.2278243 116.872292,29.1472543 116.796086,29.1007279 C116.718724,29.0542016 116.621733,29.0507972 116.538599,29.0905148 C115.881602,29.4184688 115.153018,29.5864175 114.415197,29.5818783 C113.260546,29.5818783 112.736335,29.073493 112.736335,27.9398391 L112.736335,20.750953 L116.718724,20.750953 C116.861901,20.7520877 116.97852,20.6374741 116.979753,20.4967603 L116.979753,17.507727 C116.983139,17.3704175 116.871138,17.2558039 116.73027,17.2535343 L116.721033,17.2535343 L116.718724,17.2592082 Z M97.6473649,29.7589097 C95.1360005,29.7623097 93.0991974,27.7650817 93.0945788,25.2980511 C93.0945788,25.2322334 93.0957335,25.1652809 93.0991974,25.0994631 C92.9629487,22.6937111 94.8369461,20.6363393 97.2859594,20.503569 C97.3852593,20.4978951 97.4868686,20.4956255 97.5873231,20.4967603 C100.105615,20.4854124 102.15512,22.4815057 102.167821,24.9564797 C102.167821,25.0234323 102.166666,25.0903848 102.163202,25.1573373 C102.290214,27.569898 100.403515,29.6261351 97.9498833,29.7509618 C97.8482741,29.755501 97.7466649,29.7577706 97.6462103,29.755501 L97.6473649,29.7589097 Z M97.6473649,16.9357935 C93.0518568,17.1173597 89.4782141,20.9257104 89.6629581,25.4398997 C89.8477022,29.9552238 93.7227086,33.4685295 98.3170621,33.2858285 C102.786713,33.1099363 106.315325,29.4933648 106.307256,25.0960587 C106.233345,20.5160517 102.392978,16.8608974 97.7328091,16.9346587 C97.7039428,16.9346587 97.6750766,16.9357935 97.6473649,16.9357935 L97.6473649,16.9357935 Z M83.6218278,25.0960587 C83.6218278,27.8195515 81.8759965,29.7271313 79.37156,29.7271313 C76.7701329,29.5149258 74.834939,27.2703138 75.0508586,24.7125002 C75.2413759,22.4485968 77.0691873,20.6533611 79.37156,20.4649862 C81.7743873,20.5115125 83.6818696,22.4622143 83.6356836,24.8225747 C83.6333743,24.9144926 83.6287557,25.0052756 83.6218278,25.094924 L83.6218278,25.0960587 Z M80.2098361,16.9357935 C78.2353841,16.906289 76.3579227,17.7744023 75.1236015,19.2882104 L75.1236015,17.5088618 C75.1224469,17.368148 75.0058272,17.2535343 74.8614959,17.2535343 L74.8603413,17.2535343 L71.2416672,17.2535343 C71.0984906,17.2535343 70.9807163,17.368148 70.9807163,17.5088618 L70.9807163,37.2825542 C70.9818709,37.423268 71.0984906,37.5367553 71.2416672,37.5367553 L74.8603413,37.5367553 C75.0035179,37.5378816 75.1212922,37.4244028 75.1236015,37.2825542 L75.1236015,31.0412165 C76.4017994,32.4835329 78.2642504,33.2949068 80.2098361,33.2551892 C83.9959345,33.2551892 87.8316827,30.4522612 87.8316827,25.0971935 C87.8316827,19.7421258 84.004017,16.9369283 80.2098361,16.9369283 L80.2098361,16.9357935 Z M62.6499144,20.76684 C58.6086383,19.8408525 57.8939098,19.1906185 57.8939098,17.824333 C57.8939098,16.5340783 59.1570972,15.6682345 61.0357132,15.6682345 C63.050578,15.7363219 64.9869266,16.44443 66.5560963,17.6858888 C66.6750253,17.7709979 66.8412949,17.7460326 66.9290484,17.6291493 L68.9011911,14.9555873 C68.9785526,14.8466476 68.9566143,14.6979902 68.8515411,14.6151507 C66.649623,12.8936763 63.9061739,11.9801714 61.0946004,12.0312369 C56.7323316,12.0312369 53.6863641,14.5481981 53.6863641,18.1488826 C53.6863641,22.007164 56.3155028,23.3779887 60.8567424,24.4333422 C64.7190477,25.2901076 65.3725798,26.007294 65.3725798,27.2896052 C65.3725798,28.7103606 64.0551238,29.5954958 61.9305672,29.5954958 C59.5335132,29.5807435 57.2334498,28.6672387 55.499165,27.0399517 C55.4448965,26.9968297 55.3756175,26.974134 55.3063384,26.9786731 C55.2359048,26.9832123 55.1700897,27.0149864 55.1239037,27.0671866 L52.9115937,29.5977654 C52.8203763,29.7021659 52.8307682,29.8610363 52.9358414,29.9518194 C55.3940919,32.0840873 58.5636069,33.2529196 61.8428138,33.2360811 C66.5410859,33.2360811 69.5778562,30.7654629 69.5778562,26.9434947 C69.588208,23.7184253 67.5779618,21.9311332 62.6603062,20.7804575 L62.6499144,20.76684 Z M36.2349794,19.9418486 C28.6974223,15.6296517 16.2606839,15.2392844 9.05797533,17.3397782 C7.91256223,17.6836192 6.69787012,17.0594854 6.33069132,15.9383142 C5.98891483,14.8296257 6.62743645,13.6585238 7.75668444,13.3237612 C7.76707629,13.3203568 7.77746815,13.3169524 7.78901465,13.3135481 C16.0516922,10.9009874 29.7885668,11.3685203 38.4692278,16.3230076 C39.4841654,16.8881324 39.8409523,18.1556913 39.2659365,19.1531705 C39.2555446,19.1713271 39.2451528,19.1894838 39.2347609,19.2065056 C38.6031672,20.2130631 37.2695461,20.5398823 36.2326701,19.9429834 L36.2349794,19.9418486 Z M35.9901936,26.3193609 C35.4509719,27.1477566 34.3390436,27.4042189 33.4822931,26.8981031 C27.1929129,23.1816703 17.6093155,22.1047558 10.1710582,24.2767413 C9.21500777,24.5604385 8.20353411,24.0407053 7.89524248,23.107909 C7.6111985,22.1819215 8.14464694,21.2048684 9.08799624,20.9268452 C9.09492414,20.9245756 9.10300669,20.922306 9.11108924,20.9200365 C17.6070061,18.441658 28.1628192,19.6411296 35.3897754,23.9090698 C36.2280515,24.3947593 36.5086316,25.4557867 36.0155959,26.2796433 C36.0063587,26.2932608 35.9982761,26.308013 35.9901936,26.3204957 L35.9901936,26.3193609 Z M33.1266608,32.4472197 C32.6971309,33.1122058 31.8068955,33.3176026 31.1210333,32.912483 C25.6272071,29.6851441 18.7143158,28.955475 10.5671033,30.7439019 C9.79002362,30.9197942 9.01294397,30.4488569 8.82358132,29.6874137 C8.64922912,28.933914 9.1307183,28.1838187 9.89856075,28.0124656 C9.90548865,28.0113308 9.91241655,28.010196 9.91934445,28.0079264 C18.8309355,26.050416 26.4735658,26.893564 32.6417077,30.5169442 C33.3137142,30.9027723 33.5400256,31.7515942 33.1474445,32.4120412 C33.1405166,32.4245239 33.1335887,32.4358718 33.1266608,32.4472197 L33.1266608,32.4472197 Z M22.3988049,0.00134228147 C9.75653876,0.271421983 -0.269289795,10.5628204 0.00551697619,22.9876214 C0.280323748,35.4112877 10.7518473,45.2646576 23.3929588,44.9945779 C35.8423983,44.7279026 45.79202,34.7349536 45.7908653,22.4973927 C45.6511526,9.9375518 35.1784744,-0.133697569 22.3988049,0.00134228147 L22.3988049,0.00134228147 Z" id="Spotify" fill="#080808" mask="url(#mask-2)"></path>
            </g>
        </g>
    </g>
</svg>