<?xml version="1.0" encoding="UTF-8"?>
<svg width="122px" height="34px" viewBox="0 0 122 34" version="1.1" xmlns="http://www.w3.org/2000/svg" xmlns:xlink="http://www.w3.org/1999/xlink">
    <title>tik-b</title>
    <defs>
        <rect id="path-1" x="0" y="0" width="122" height="34"></rect>
    </defs>
    <g id="Page-1" stroke="none" stroke-width="1" fill="none" fill-rule="evenodd">
        <g id="Desktop-Homepage-1920" transform="translate(-1648.000000, -1166.000000)">
            <g id="Logos" transform="translate(150.000000, 1160.000000)">
                <g id="tik-b" transform="translate(1498.000000, 6.000000)">
                    <mask id="mask-2" fill="white">
                        <use xlink:href="#path-1"></use>
                    </mask>
                    <use id="Mask" fill-opacity="0" fill="#D8D8D8" xlink:href="#path-1"></use>
                    <path d="M96.6713851,25.2060706 L96.6426464,25.2060706 C94.575261,25.2158694 92.8922548,23.5525275 92.8832739,21.4937057 L92.8832739,21.4919162 C92.8671085,19.4232522 94.5366434,17.7330678 96.6121116,17.717857 C98.6875798,17.7008567 100.384057,19.3641986 100.399325,21.4319679 C100.416388,23.500632 98.7477513,25.1899216 96.6713851,25.2060706 L96.6713851,25.2060706 Z M96.8608804,13.8534279 C96.8051993,13.8525332 96.7504163,13.8525332 96.6947352,13.8534279 L96.5887615,13.8534279 C92.3543035,13.8077956 88.8850116,17.189954 88.8392094,21.4087044 C88.7943053,25.6265601 92.1890563,29.0829827 96.4226163,29.1295098 L96.5887615,29.1295098 L96.6947352,29.1295098 C100.928295,29.1751421 104.398485,25.792089 104.444287,21.5733386 C104.49009,17.3554829 101.095338,13.8981655 96.8608804,13.8534279 L96.8608804,13.8534279 Z M75.1003464,10.4005843 L75.1003464,14.2730661 L79.6518275,14.2730661 L79.6518275,29.0257187 L84.2051047,29.0257187 L84.2051047,14.3768572 L87.9105923,14.3768572 L89.1804806,10.4005843 L75.1003464,10.4005843 Z M115.75294,20.1354739 L121.364158,14.6944938 L115.964887,14.6944938 L111.517583,19.0886153 L111.517583,10.4104265 L107.071178,10.4005843 L107.071178,29.0248239 L111.518482,29.0248239 L111.518482,24.2128537 L112.894344,22.9593077 L117.235673,29.1339835 L122,29.1339835 L115.75294,20.1354739 Z M73.4020728,14.6944938 L68.0028021,14.6944938 L63.5572947,19.0886153 L63.5572947,10.4104265 L59.1135835,10.4005843 L59.1135835,29.0248239 L63.560887,29.0248239 L63.560887,24.2128537 L64.9376472,22.9593077 L69.2780789,29.1339835 L74.0379151,29.1339835 L67.7908546,20.1354739 L73.4020728,14.6944938 Z M54.9842011,14.7947448 L55.0021628,14.7947448 C56.2298413,14.7857583 57.2168337,13.7863216 57.2078529,12.5631972 C57.197974,11.3409674 56.1957141,10.3567415 54.9680356,10.365689 C53.7403571,10.3755312 52.7533647,11.374968 52.7623455,12.5971977 L52.7587532,12.5971977 L52.7587532,12.6025662 C52.7659379,13.8203221 53.7619111,14.8018639 54.9842011,14.7947448 L54.9842011,14.7947448 Z M37.8299312,14.2730661 L42.3814123,14.2730661 L42.3814123,29.0257187 L46.9346895,29.0257187 L46.9346895,14.3768572 L50.6401771,14.3768572 L51.9109635,10.4005843 L37.8299312,10.4005843 L37.8299312,14.2730661 Z M52.7623455,29.0248239 L57.2078529,29.0248239 L57.2078529,16.3649937 L52.7623455,16.3649937 L52.7623455,29.0248239 Z M21.6967809,1.41818015 C21.6581633,1.19717668 21.6069727,0 21.6069727,0 L15.7299221,0 L15.7299221,23.2429437 C15.7209413,25.9603021 13.502678,28.1569156 10.774304,28.147968 C10.0073417,28.1452838 9.25115645,27.9645441 8.56591966,27.620065 C6.12852431,26.4005196 5.1451242,23.4415784 6.37010845,21.0132245 C7.46217652,18.8497169 9.97231653,17.7983846 12.2884708,18.5356593 L12.2884708,12.5864607 C11.7972198,12.5193544 11.3023764,12.4862486 10.806635,12.4862486 C4.84426663,12.4799853 0.00629731131,17.2901661 5.35959206e-06,23.2304172 C-0.00358159393,26.822842 1.79348108,30.1799473 4.78948361,32.177926 C4.62513455,32.0106076 4.62962496,32.0115024 4.79307594,32.1788208 C9.75138829,35.4867148 16.4618592,34.1633782 19.7811713,29.2234586 C20.9702323,27.4536414 21.6060746,25.3724508 21.6078707,23.2429437 L21.6078707,11.36781 C23.9832984,13.0597839 26.8311174,13.9661665 29.7507829,13.9625875 L29.7507829,8.14312779 C28.0938211,8.04559994 26.7718439,7.76106916 25.4274147,6.91552958 C23.4579203,5.69240512 22.1009179,3.69532115 21.6967809,1.41818015 L21.6967809,1.41818015 Z" id="Tik" fill="#080808" mask="url(#mask-2)"></path>
                </g>
            </g>
        </g>
    </g>
</svg>